<svg xmlns="http://www.w3.org/2000/svg" width="900" height="420" viewBox="0 0 900 420">
<style>text{font-family:Arial,Helvetica,sans-serif;fill:#111827} .axis{stroke:#6b7280;stroke-width:1} .grid{stroke:#e5e7eb;stroke-width:1} .blue{stroke:#2563eb;fill:none;stroke-width:2} .green{fill:#16a34a} .gray{fill:#9ca3af} .red{fill:#dc2626}</style>

<text x="70" y="28" font-size="18" font-weight="700">R3 gated full-calendar equity proxy</text>
<line x1="70" y1="365" x2="870" y2="365" class="axis"/>
<line x1="70" y1="45" x2="70" y2="365" class="axis"/>
<text x="12" y="53" font-size="12">1.266</text>
<text x="12" y="365" font-size="12">0.981</text>
<polyline points="70.00,325.70 80.39,341.28 90.78,341.28 101.17,341.28 111.56,341.28 121.95,341.28 132.34,341.28 142.73,341.28 153.12,341.28 163.51,341.28 173.90,341.28 184.29,341.28 194.68,341.28 205.06,341.28 215.45,341.28 225.84,341.28 236.23,341.28 246.62,341.28 257.01,341.28 267.40,341.28 277.79,341.28 288.18,341.28 298.57,341.28 308.96,341.28 319.35,341.28 329.74,341.28 340.13,341.28 350.52,341.28 360.91,341.28 371.30,341.28 381.69,341.28 392.08,341.28 402.47,341.28 412.86,341.28 423.25,341.28 433.64,341.28 444.03,341.28 454.42,341.28 464.81,341.28 475.19,341.28 485.58,341.28 495.97,349.93 506.36,334.90 516.75,365.00 527.14,334.48 537.53,333.11 547.92,315.14 558.31,314.37 568.70,319.88 579.09,310.02 589.48,316.01 599.87,311.48 610.26,307.34 620.65,335.95 631.04,307.30 641.43,325.59 651.82,294.26 662.21,301.28 672.60,258.00 682.99,236.44 693.38,225.61 703.77,221.39 714.16,198.36 724.55,201.65 734.94,183.98 745.32,170.76 755.71,173.77 766.10,164.79 776.49,136.23 786.88,156.08 797.27,146.67 807.66,123.23 818.05,128.57 828.44,131.48 838.83,108.07 849.22,72.55 859.61,45.00 870.00,45.00" class="blue"/>
<rect x="68.00" y="373" width="4" height="10" class="green" opacity="0.45"/><rect x="78.39" y="373" width="4" height="10" class="green" opacity="0.45"/><rect x="493.97" y="373" width="4" height="10" class="green" opacity="0.45"/><rect x="504.36" y="373" width="4" height="10" class="green" opacity="0.45"/><rect x="514.75" y="373" width="4" height="10" class="green" opacity="0.45"/><rect x="525.14" y="373" width="4" height="10" class="green" opacity="0.45"/><rect x="535.53" y="373" width="4" height="10" class="green" opacity="0.45"/><rect x="545.92" y="373" width="4" height="10" class="green" opacity="0.45"/><rect x="556.31" y="373" width="4" height="10" class="green" opacity="0.45"/><rect x="566.70" y="373" width="4" height="10" class="green" opacity="0.45"/><rect x="577.09" y="373" width="4" height="10" class="green" opacity="0.45"/><rect x="587.48" y="373" width="4" height="10" class="green" opacity="0.45"/><rect x="597.87" y="373" width="4" height="10" class="green" opacity="0.45"/><rect x="608.26" y="373" width="4" height="10" class="green" opacity="0.45"/><rect x="618.65" y="373" width="4" height="10" class="green" opacity="0.45"/><rect x="629.04" y="373" width="4" height="10" class="green" opacity="0.45"/><rect x="639.43" y="373" width="4" height="10" class="green" opacity="0.45"/><rect x="649.82" y="373" width="4" height="10" class="green" opacity="0.45"/><rect x="660.21" y="373" width="4" height="10" class="green" opacity="0.45"/><rect x="670.60" y="373" width="4" height="10" class="green" opacity="0.45"/><rect x="680.99" y="373" width="4" height="10" class="green" opacity="0.45"/><rect x="691.38" y="373" width="4" height="10" class="green" opacity="0.45"/><rect x="701.77" y="373" width="4" height="10" class="green" opacity="0.45"/><rect x="712.16" y="373" width="4" height="10" class="green" opacity="0.45"/><rect x="722.55" y="373" width="4" height="10" class="green" opacity="0.45"/><rect x="732.94" y="373" width="4" height="10" class="green" opacity="0.45"/><rect x="743.32" y="373" width="4" height="10" class="green" opacity="0.45"/><rect x="753.71" y="373" width="4" height="10" class="green" opacity="0.45"/><rect x="764.10" y="373" width="4" height="10" class="green" opacity="0.45"/><rect x="774.49" y="373" width="4" height="10" class="green" opacity="0.45"/><rect x="784.88" y="373" width="4" height="10" class="green" opacity="0.45"/><rect x="795.27" y="373" width="4" height="10" class="green" opacity="0.45"/><rect x="805.66" y="373" width="4" height="10" class="green" opacity="0.45"/><rect x="816.05" y="373" width="4" height="10" class="green" opacity="0.45"/><rect x="826.44" y="373" width="4" height="10" class="green" opacity="0.45"/><rect x="836.83" y="373" width="4" height="10" class="green" opacity="0.45"/><rect x="847.22" y="373" width="4" height="10" class="green" opacity="0.45"/><rect x="857.61" y="373" width="4" height="10" class="green" opacity="0.45"/>
<text x="70" y="402" font-size="12">Green ticks mark active R3 days. Source: generated/daily_oos_r3_curve.csv.</text>

</svg>